<svg width="362" height="33" viewBox="0 0 362 33" fill="none" xmlns="http://www.w3.org/2000/svg">
<g clip-path="url(#clip0_2493_967)">
<path d="M16.0424 23.0877L24.3042 28.0741L22.1117 18.676L29.411 12.3527L19.799 11.5372L16.0424 2.67383L12.2858 11.5372L2.67383 12.3527L9.97307 18.676L7.78063 28.0741L16.0424 23.0877Z" fill="#F8A401"/>
</g>
<g clip-path="url(#clip1_2493_967)">
<path d="M53.4745 23.0877L61.7363 28.0741L59.5439 18.676L66.8431 12.3527L57.2311 11.5372L53.4745 2.67383L49.718 11.5372L40.106 12.3527L47.4052 18.676L45.2128 28.0741L53.4745 23.0877Z" fill="#F8A401"/>
</g>
<g clip-path="url(#clip2_2493_967)">
<path d="M90.9067 23.0877L99.1684 28.0741L96.976 18.676L104.275 12.3527L94.6632 11.5372L90.9067 2.67383L87.1501 11.5372L77.5381 12.3527L84.8373 18.676L82.6449 28.0741L90.9067 23.0877Z" fill="#F8A401"/>
</g>
<g clip-path="url(#clip3_2493_967)">
<path d="M141.707 12.3527L132.095 11.5238L128.338 2.67383L124.582 11.5372L114.97 12.3527L122.269 18.676L120.077 28.0741L128.338 23.0877L136.6 28.0741L134.421 18.676L141.707 12.3527ZM128.338 20.5877V8.15495L130.624 13.5559L136.48 14.0639L132.041 17.914L133.378 23.6358L128.338 20.5877Z" fill="#F8A401"/>
</g>
<g clip-path="url(#clip4_2493_967)">
<path d="M179.139 12.3527L169.527 11.5238L165.77 2.67383L162.014 11.5372L152.402 12.3527L159.701 18.676L157.509 28.0741L165.77 23.0877L174.032 28.0741L171.853 18.676L179.139 12.3527ZM165.77 20.5877L160.744 23.6224L162.081 17.9006L157.642 14.0505L163.498 13.5425L165.77 8.15495L168.056 13.5559L173.912 14.0639L169.474 17.914L170.81 23.6358L165.77 20.5877Z" fill="#F8A401"/>
</g>
<defs>
<clipPath id="clip0_2493_967">
<rect width="32.0846" height="32.0846" fill="white"/>
</clipPath>
<clipPath id="clip1_2493_967">
<rect width="32.0846" height="32.0846" fill="white" transform="translate(37.4321)"/>
</clipPath>
<clipPath id="clip2_2493_967">
<rect width="32.0846" height="32.0846" fill="white" transform="translate(74.8643)"/>
</clipPath>
<clipPath id="clip3_2493_967">
<rect width="32.0846" height="32.0846" fill="white" transform="translate(112.296)"/>
</clipPath>
<clipPath id="clip4_2493_967">
<rect width="32.0846" height="32.0846" fill="white" transform="translate(149.728)"/>
</clipPath>
</defs>
</svg>
